<svg id="Calque_1" data-name="Calque 1" xmlns="http://www.w3.org/2000/svg" viewBox="0 0 1013.3474 667.4993"><defs><style>.cls-1{fill:#2487ea;}</style></defs><title>logo2</title><path class="cls-1" d="M461.9679,768.1337v65.2344q-6.36-3.5853-11.5791-3.5879-16.6348,0-16.6348,25.4409v77.1406H372.76V843.4794q0-35.2266,19.2441-56.1831,19.2414-20.9539,51.3721-20.9566A125.0835,125.0835,0,0,1,461.9679,768.1337Z" transform="translate(-193.3263 -366.2503)"/><path class="cls-1" d="M570.2569,871.3676v63.1133a80.5888,80.5888,0,0,1-13.6992,1.3046q-36.6943,0-61.1572-24.1367-24.4629-24.1332-24.4629-60.5039,0-35.3877,24.707-60.0161,24.709-24.6232,60.0977-24.626,39.4658,0,62.2168,23.0767,22.752,23.0793,22.751,63.0322v79.75H579.7159V857.016q0-12.8818-6.2783-20.5493-6.2812-7.6641-16.88-7.665A23.9491,23.9491,0,0,0,532.91,852.45q0,10.1133,6.36,16.6348a21.5861,21.5861,0,0,0,16.1455,6.5234A27.6694,27.6694,0,0,0,570.2569,871.3676Z" transform="translate(-193.3263 -366.2503)"/><path class="cls-1" d="M798.4142,769.7645,722.4161,938.7211,647.3966,769.7645h58.2217l17.2871,43.87,18.9179-43.87Z" transform="translate(-193.3263 -366.2503)"/><path class="cls-1" d="M964.7618,860.93h-92.47a42.7261,42.7261,0,0,1,.8154-28.8667h30.9864q-3.2637-18.1026-20.3858-18.1026-11.4169,0-18.5918,9.7036-7.1777,9.7047-7.1758,24.8711,0,15.82,6.9317,25.6036,6.9287,9.7851,18.1836,9.7851,9.1318,0,17.6133-9.1328l34.7373,41.75q-24.3018,19.0811-53.9815,19.082-36.2051,0-60.831-24.3008-24.627-24.2988-24.626-60.1777,0-35.7165,24.8711-60.3423,24.8671-24.6232,61.0752-24.6259,35.3877,0,59.4443,24.0551,24.0541,24.0579,24.0557,59.2823Q965.4142,853.1029,964.7618,860.93Z" transform="translate(-193.3263 -366.2503)"/><path class="cls-1" d="M625.3263,483.7489h80.8906q71.921,0,71.9209,56.5908,0,28.0518-24.626,46.6426,35.7159,15.4959,35.7158,55.2862,0,30.498-21.038,48.6a60.2748,60.2748,0,0,1-22.0166,12.0683q-11.7423,3.4248-31.6387,3.4248H701.9767V649.1181H713.23q9.9456,0,14.0254-2.5279,4.0745-2.5267,4.0771-8.8882,0-10.7636-16.6347-10.7636H701.9767V567.5751q18.2629,0,18.2656-12.5576,0-11.5782-16.4717-11.5791H691.5392V706.3612H625.3263Z" transform="translate(-193.3263 -366.2503)"/><path class="cls-1" d="M971.2316,634.93h-92.47a42.7239,42.7239,0,0,1,.8155-28.8662h30.9863q-3.2644-18.1026-20.3858-18.1026-11.417,0-18.5918,9.7036-7.1784,9.7047-7.1757,24.8707,0,15.82,6.9311,25.6044t18.1841,9.7852q9.1318,0,17.6133-9.1328l34.7373,41.75q-24.3033,19.081-53.9815,19.081-36.2051,0-60.831-24.3t-24.626-60.1787q0-35.7158,24.8706-60.3418,24.8679-24.6232,61.0757-24.6259,35.3869,0,59.4443,24.0551,24.0557,24.0579,24.0557,59.2818Q971.8839,627.1024,971.2316,634.93Z" transform="translate(-193.3263 -366.2503)"/><path class="cls-1" d="M321.5118,813.2516q24.6234-18.6093,24.626-46.6882,0-56.6467-71.9209-56.6487h-4.24v59.75h1.7939q16.4708,0,16.4717,11.5913,0,12.5727-18.2656,12.57v59.422h12.7207q16.6347,0,16.6347,10.7744,0,6.3669-4.0771,8.8972-4.0782,2.5328-14.0254,2.5305l-21.69.2977V709.9147H193.3263V932.75h89.208q19.8956,0,31.6387-3.4283A60.2569,60.2569,0,0,0,336.19,917.2409q21.038-18.1208,21.038-48.6477Q357.2276,828.7628,321.5118,813.2516Z" transform="translate(-193.3263 -366.2503)"/><path class="cls-1" d="M1002.37,425.75" transform="translate(-193.3263 -366.2503)"/><path class="cls-1" d="M1029.37,418.75" transform="translate(-193.3263 -366.2503)"/><path class="cls-1" d="M1196.31,977.75,1074.0813,866.2454a10.4449,10.4449,0,0,1-2.1112-12.6973c23.3076-43.1746,33.4-90.2347,33.4-153.7984a333.53,333.53,0,0,0-665.721-29.3245A10.4208,10.4208,0,0,0,450.0317,681.75h16.3211a10.3867,10.3867,0,0,0,10.3584-9.3659A297.4648,297.4648,0,0,1,772.25,403.26c3.31,0,6.63.05,9.95.17,160.47,5.48,286.17,135.64,286.17,296.32,0,62.4455-10.5335,106.5539-35.1612,147.0305a10.795,10.795,0,0,1-.9082,1.2724l-.8505,1.027h-.01a21.9991,21.9991,0,0,0,2.13,30.29L1141.48,977.8141a10.4147,10.4147,0,0,1-6.9945,18.1086l-351.345.827-19.5-.62q-.2527-.0068-.5057-.014a10.43,10.43,0,0,0-10.7643,10.4057v16.1758a10.3945,10.3945,0,0,0,10.0783,10.41l.1017.0027,20.05.64,392.44-.92a31.6771,31.6771,0,0,0,21.27-55.08Z" transform="translate(-193.3263 -366.2503)"/></svg>